<svg width="1001" height="217" viewBox="0 0 1001 217" fill="none" xmlns="http://www.w3.org/2000/svg">
<circle cx="90.1682" cy="94.0407" r="89.7697" fill="white"/>
<path d="M575.579 50.8698C576.551 35.7911 582.384 23.1444 593.565 13.2217C601.148 6.50924 609.995 2.32612 620.106 0.866894C622.148 0.575049 624.189 0.575049 626.231 0.477767C627.689 0.380485 628.273 0.964176 628.078 2.4234C627.981 2.90981 628.078 3.4935 628.078 3.97991C628.078 56.3176 628.078 108.752 628.078 161.09C628.078 171.207 626.231 180.741 621.175 189.594C615.439 199.614 607.273 206.91 596.773 211.579C590.551 214.401 584.037 215.276 577.426 216.249C576.551 216.346 575.967 216.152 575.967 215.179C575.967 214.498 575.967 213.817 575.967 213.233C575.967 179.574 575.967 146.011 575.967 112.352C575.967 111.574 575.967 110.795 575.967 110.017C574.023 113.422 572.37 116.924 570.426 120.232C564.884 129.765 557.69 137.937 548.746 144.455C538.926 151.654 527.94 156.421 515.982 158.658C512.774 159.242 509.468 159.825 506.163 159.825C489.829 159.825 473.496 159.825 457.163 159.825C455.121 159.825 454.538 160.409 454.635 162.452C455.121 175.099 451.233 186.286 443.552 196.209C435.677 206.326 425.177 212.455 412.636 215.082C409.914 215.665 407.191 215.957 404.372 216.346C403.205 216.541 402.525 216.054 402.525 214.79C402.525 214.206 402.525 213.622 402.525 213.039C402.525 182.103 402.525 151.265 402.525 120.329C402.525 94.3548 420.705 72.8555 445.205 68.4778C447.538 68.0887 449.969 67.7968 452.399 67.6023C454.246 67.505 454.635 68.1859 454.635 69.8397C454.538 81.7081 454.635 93.5765 454.635 105.348C454.635 108.169 454.635 108.169 457.552 108.169C471.746 108.169 485.941 108.169 500.135 108.169C510.149 108.169 518.315 104.18 524.343 96.1058C531.732 86.1831 530.662 70.7153 522.01 61.8626C515.496 55.1502 507.718 52.1344 498.579 52.1344C464.066 52.1344 429.649 52.1344 395.136 52.1344C387.358 52.1344 381.622 56.0257 378.803 63.2246C378.122 64.8784 377.928 66.6294 377.928 68.3805C377.928 91.4363 377.928 114.395 377.928 137.451C377.928 156.031 372.483 172.764 360.817 187.162C348.956 201.851 333.595 210.996 315.026 214.595C309.97 215.568 304.915 216.444 299.762 216.249C282.554 215.471 266.609 210.607 252.804 200.003C240.165 190.275 231.318 177.823 226.165 162.744C224.221 157.102 223.151 151.167 222.471 145.136C222.082 141.147 222.179 137.256 222.179 133.268C222.179 89.9771 222.179 46.5894 222.082 3.29894C222.082 1.15874 222.374 0.283203 224.804 0.380485C236.471 0.866894 246.582 5.05001 255.526 12.4434C264.276 19.6423 269.818 28.8841 272.637 39.7796C273.707 43.9628 274.193 48.2432 274.193 52.6208C274.193 81.1244 274.29 109.531 274.193 138.034C274.193 150.097 282.456 160.604 294.317 163.425C304.915 165.954 316.192 160.993 321.734 151.557C324.65 146.595 325.914 141.342 325.914 135.602C325.817 113.033 325.817 90.4635 325.914 67.7968C325.914 57.0958 328.248 46.8812 333.109 37.2503C339.234 25.2846 348.081 15.751 359.747 9.03857C369.761 3.29894 380.553 0.283203 392.219 0.283203C428.872 0.380485 465.621 0.283203 502.274 0.380485C512.288 0.380485 521.815 3.0071 531.051 6.80109C542.912 11.6652 553.023 19.1559 561.579 28.5922C566.634 34.2346 570.912 40.4606 573.926 47.4649C574.412 48.6323 574.995 49.7024 575.579 50.8698Z" fill="white"/>
<path d="M678.727 70.0336C678.727 62.7375 678.727 55.4413 678.727 48.1452C678.727 46.3941 679.115 45.9077 680.963 45.9077C689.907 46.005 698.754 46.005 707.698 45.9077C709.74 45.9077 709.74 46.8805 709.74 48.3398C709.74 49.799 710.032 51.2582 707.601 51.2582C700.504 51.1609 693.504 51.2582 686.407 51.1609C684.56 51.1609 683.977 51.6473 684.074 53.4957C684.171 57.4843 684.171 61.4728 684.074 65.4614C684.074 67.1152 684.463 67.6016 686.213 67.6016C692.24 67.5043 698.268 67.6989 704.296 67.5043C706.629 67.407 706.726 68.5744 706.726 70.3255C706.726 71.9793 706.629 73.0494 704.393 72.9521C698.365 72.7575 692.338 72.9521 686.31 72.8548C684.754 72.8548 684.074 73.1466 684.074 74.8977C684.171 79.1781 684.171 83.4585 684.074 87.7389C684.074 89.2954 684.56 89.7818 686.115 89.6846C693.213 89.5873 700.407 89.6846 707.504 89.5873C709.546 89.5873 709.74 90.4628 709.74 92.1166C709.74 93.7704 709.448 94.6459 707.504 94.5487C698.657 94.4514 689.81 94.4514 681.06 94.5487C679.31 94.5487 678.824 94.0622 678.824 92.3112C678.824 84.8205 678.727 77.427 678.727 70.0336Z" fill="white"/>
<path d="M750.281 66.6318C750.281 73.6361 750.184 80.6404 750.378 87.5474C750.475 90.2713 749.211 92.3142 746.975 93.1898C739.684 96.1082 732.392 97.081 725.392 92.4115C722.184 90.2713 720.531 86.9637 719.753 83.267C718.392 77.041 718.295 70.9122 721.309 65.0753C723.642 60.5031 727.531 58.5574 732.392 57.7792C736.184 57.1955 739.781 57.9737 743.378 59.1411C744.739 59.6275 745.225 59.3357 745.128 57.8764C745.031 53.4988 745.225 49.2184 745.031 44.8407C744.934 42.6032 746.295 42.7978 747.656 42.7978C749.017 42.7978 750.378 42.4086 750.378 44.7434C750.184 52.0395 750.281 59.3357 750.281 66.6318ZM744.934 76.5546C744.934 73.247 744.836 69.9394 744.934 66.6318C744.934 65.2699 744.447 64.5889 743.281 64.1025C740.656 62.9351 737.934 62.8378 735.114 62.6433C729.962 62.2541 726.267 65.7563 725.198 69.9394C723.837 75.0953 724.128 80.2513 725.975 85.2126C727.045 88.1311 729.475 90.0767 732.586 90.4659C735.795 90.855 739.003 90.9523 742.211 89.9795C744.059 89.3958 745.031 88.423 744.934 86.38C744.836 82.9752 744.934 79.7649 744.934 76.5546Z" fill="white"/>
<path d="M716.64 121.982C716.64 126.651 716.834 131.224 716.64 135.893C716.251 145.135 711.876 152.334 702.445 153.89C695.445 154.96 688.64 154.474 683.487 148.54C681.057 145.621 679.598 142.314 679.209 138.617C678.14 128.111 679.015 117.507 678.723 106.903C678.723 105.736 679.015 105.055 680.376 105.249C680.959 105.347 681.543 105.347 682.126 105.249C683.682 105.055 684.07 105.833 684.07 107.292C683.973 116.145 684.07 125.095 684.07 133.947C684.07 135.893 684.362 137.839 684.848 139.784C686.015 145.135 689.32 148.345 694.668 149.123C699.918 149.902 704.876 149.415 708.667 144.94C710.32 142.995 711.001 140.66 711.39 138.325C711.779 135.504 711.973 132.683 711.876 129.764C711.779 122.274 711.973 114.783 711.779 107.292C711.779 105.055 712.945 105.249 714.403 105.249C715.959 105.152 716.834 105.444 716.737 107.389C716.64 112.059 716.64 117.02 716.64 121.982Z" fill="white"/>
<path d="M868.019 77.5259C868.019 80.3471 867.824 83.2655 868.019 86.0867C868.408 91.5345 865.296 93.9665 860.727 94.842C856.158 95.7176 851.394 95.9121 846.727 94.9393C840.019 93.5774 837.394 88.7133 837.977 82.7791C838.95 73.8292 845.949 71.689 853.338 72.2727C856.158 72.4672 858.88 72.7591 861.408 74.0237C862.088 74.4129 862.574 74.0237 862.574 73.2455C862.574 71.2998 862.866 69.4515 862.38 67.5058C861.505 64.2955 858.297 62.3499 853.922 62.2526C850.13 62.2526 846.436 62.9336 843.13 64.782C841.866 65.5602 841.477 65.2684 841.477 63.8091C841.283 60.4043 841.477 59.9179 844.783 58.945C849.838 57.4858 854.991 56.6103 860.338 58.1668C864.908 59.4315 867.921 63.1282 867.921 67.895C868.019 71.2026 868.019 74.3156 868.019 77.5259ZM862.769 83.5574C862.769 82.8764 862.672 82.1954 862.769 81.6117C863.255 79.277 861.991 78.3041 859.949 77.915C856.547 77.1367 853.144 76.5531 849.547 77.234C846.144 77.915 843.422 79.9579 843.325 83.0709C843.227 86.3785 844.297 88.616 847.894 89.978C850.713 91.0481 853.727 91.3399 856.741 90.8535C862.672 89.978 862.574 89.8807 862.574 83.9465C862.769 83.8492 862.769 83.6546 862.769 83.5574Z" fill="white"/>
<path d="M842.648 136.38C838.856 136.38 835.162 136.38 831.37 136.38C830.009 136.38 829.62 136.867 829.62 138.131C829.426 144.552 834.287 149.513 840.606 149.611C844.592 149.708 848.384 149.027 851.981 147.373C853.245 146.79 853.44 147.179 853.537 148.443C853.731 152.14 853.731 152.237 850.037 153.307C844.106 154.864 838.273 155.448 832.44 152.626C828.745 150.875 826.509 147.665 825.44 143.968C823.593 138.034 823.593 132.003 825.537 126.068C827.287 120.718 832.343 116.827 838.079 116.438C841.87 116.243 845.565 116.438 848.87 118.578C853.44 121.691 855.092 126.263 855.676 131.516C855.773 132.197 855.578 133.073 855.773 133.754C856.453 136.186 855.19 136.38 853.245 136.283C849.648 136.38 846.148 136.38 842.648 136.38ZM840.023 131.516C842.94 131.516 845.856 131.516 848.87 131.516C849.94 131.516 850.62 131.224 850.329 129.96C849.842 127.917 849.259 125.777 847.801 124.22C844.495 120.718 840.315 120.815 836.134 121.788C832.44 122.664 830.884 125.582 830.009 129.084C829.62 130.933 829.815 131.614 831.857 131.516C834.579 131.419 837.301 131.516 840.023 131.516Z" fill="white"/>
<path d="M954.926 76.7436C955.217 80.5376 954.44 84.4288 952.398 88.0283C949.773 92.6978 945.787 95.2271 940.44 95.3244C938.204 95.4217 935.968 95.519 933.829 95.1298C926.926 93.8652 923.523 89.1957 922.259 82.6778C921.287 78.0082 921.384 73.2414 922.648 68.5719C924.204 62.6377 928.773 58.7464 934.801 57.7736C937.815 57.2872 940.634 57.4818 943.454 58.1627C950.94 59.9138 954.148 66.1399 954.829 73.0469C955.023 74.117 954.926 75.2843 954.926 76.7436ZM949.676 76.2572C949.676 75.868 949.676 75.2844 949.676 74.6034C949.579 68.8637 947.44 63.2214 939.759 62.4431C935.773 62.054 930.815 63.5132 928.871 67.6964C927.218 71.1012 927.023 74.6034 927.218 78.2028C927.704 85.8881 930.426 90.5576 937.718 90.7522C941.509 90.8494 944.912 90.1685 947.245 86.6663C949.287 83.5533 949.676 80.1484 949.676 76.2572Z" fill="white"/>
<path d="M984.298 145.912C986.145 141.243 987.992 136.476 989.839 131.709C991.492 127.429 993.145 123.246 994.798 118.965C995.284 117.603 998.978 116.728 1000.05 117.603C1000.73 118.09 1000.24 118.673 1000.05 119.16C997.812 124.997 995.478 130.931 993.242 136.768C990.423 143.967 987.506 151.166 984.687 158.462C983.617 161.283 981.77 163.52 979.534 165.466C977.201 167.509 974.381 167.703 971.659 167.12C969.52 166.633 970.784 164.493 970.59 163.131C970.395 161.575 971.562 162.353 972.242 162.45C976.326 162.839 978.562 161.283 980.312 157.489C981.478 154.862 981.478 152.528 980.214 149.804C975.839 139.784 971.853 129.666 967.673 119.549C966.992 117.992 967.187 117.409 969.131 117.409C972.923 117.506 972.923 117.409 974.478 121.3C977.589 129.18 980.603 137.157 983.714 145.037C983.617 145.426 983.617 145.815 984.298 145.912Z" fill="white"/>
<path d="M728.6 136.669C728.6 131.805 728.697 126.941 728.6 122.077C728.6 120.52 729.086 119.742 730.544 119.158C736.572 116.726 742.794 115.948 749.308 116.921C753.683 117.602 757.669 121.493 758.155 125.871C759.127 134.626 758.35 143.479 758.641 152.331C758.641 153.304 758.252 153.693 757.28 153.596C756.697 153.596 756.113 153.499 755.53 153.596C753.78 153.79 753.294 153.109 753.294 151.358C753.391 144.549 753.294 137.642 753.391 130.832C753.391 129.275 753.1 127.719 752.711 126.26C751.836 123.341 748.919 121.493 745.322 121.298C742.016 121.104 738.711 121.493 735.503 122.174C734.044 122.466 733.947 123.341 733.947 124.606C733.947 133.459 733.85 142.214 734.044 151.067C734.044 153.304 733.169 153.596 731.322 153.499C729.572 153.499 728.503 153.401 728.6 151.067C728.697 146.397 728.6 141.533 728.6 136.669Z" fill="white"/>
<path d="M964.66 77.7159C964.66 72.7546 964.66 67.8905 964.66 62.9291C964.66 61.7617 964.854 60.9835 966.021 60.4971C972.146 57.8704 978.465 56.8003 985.076 57.9677C991.882 59.2324 994.312 63.4155 994.604 69.6415C994.993 77.3268 994.701 85.1094 994.701 92.7946C994.701 94.1566 994.215 94.643 992.854 94.5457C992.368 94.4484 991.785 94.4484 991.298 94.5457C989.743 94.7403 989.257 94.0593 989.257 92.5028C989.354 85.8876 989.16 79.2725 989.354 72.6573C989.646 63.7074 984.687 61.9563 977.299 62.3454C975.549 62.4427 973.896 62.9291 972.146 63.2209C970.493 63.5128 969.91 64.3883 969.91 66.0421C970.007 74.6029 970.007 83.261 969.91 91.8218C969.91 92.6001 970.396 93.8647 969.424 94.2539C968.063 94.7403 966.507 94.643 965.049 94.2539C964.368 94.0593 964.66 93.0865 964.66 92.4055C964.66 87.5414 964.66 82.58 964.66 77.7159Z" fill="white"/>
<path d="M792.186 71.9787C792.186 75.5782 792.186 79.1776 792.186 82.777C792.089 89.3922 787.325 94.7427 780.714 95.3264C776.145 95.7155 771.478 95.9101 767.395 92.9916C764.089 90.5596 762.437 87.3493 762.339 83.458C762.145 75.7727 762.339 67.9902 762.242 60.3049C762.242 57.9702 763.603 58.3593 764.964 58.3593C766.423 58.3593 767.687 58.0674 767.589 60.4022C767.492 67.4065 767.492 74.4108 767.589 81.4151C767.589 87.5438 770.7 90.6569 776.728 90.6569C777.798 90.6569 778.77 90.7541 779.839 90.5596C784.409 89.8786 786.936 86.8629 787.034 82.1933C787.131 74.9945 787.131 67.7956 787.034 60.5968C787.034 58.262 788.2 58.3593 789.756 58.3593C791.409 58.3593 792.575 58.3593 792.478 60.5968C791.992 64.2935 792.186 68.1847 792.186 71.9787Z" fill="white"/>
<path d="M902.531 154.473C898.934 154.765 895.726 153.598 892.518 152.236C891.254 151.652 890.281 147.664 891.059 146.593C891.448 146.107 891.837 146.399 892.226 146.593C893.393 147.177 894.462 147.761 895.629 148.247C899.42 149.901 903.406 150.29 907.392 148.831C909.629 148.053 910.99 146.496 911.087 144.161C911.184 141.924 909.823 140.562 907.879 139.589C905.156 138.13 902.143 137.352 899.226 136.379C897.476 135.795 895.823 135.114 894.365 133.947C891.254 131.32 890.768 127.915 891.643 124.316C892.518 120.425 895.531 118.187 899.226 117.214C904.087 115.852 908.656 116.728 913.129 118.868C914.198 119.355 914.976 123.44 914.198 124.219C913.615 124.705 913.129 124.121 912.642 123.927C909.92 122.468 907.101 121.397 903.892 121.495C902.531 121.592 901.267 121.787 900.101 122.37C898.351 123.149 896.698 124.121 896.795 126.553C896.893 128.985 898.254 130.347 900.295 131.126C903.309 132.293 906.42 133.169 909.434 134.239C913.129 135.601 915.851 137.838 916.434 142.118C917.017 145.912 914.878 150.679 911.476 152.625C908.559 153.987 905.642 154.765 902.531 154.473Z" fill="white"/>
<path d="M802.688 147.372C804.632 142.507 806.382 138.324 808.035 134.044C810.076 129.083 812.021 124.121 814.062 119.16C814.937 117.117 817.465 116.241 819.312 117.506C820.285 118.187 819.41 118.965 819.215 119.646C817.465 123.927 815.618 128.11 813.771 132.39C810.951 138.811 808.229 145.329 805.507 151.846C805.021 153.111 804.535 153.889 803.076 153.695C801.424 153.5 799.674 154.181 798.701 151.846C795.882 144.842 792.868 137.935 789.952 130.931C788.396 127.234 786.743 123.537 785.188 119.841C784.313 117.798 784.993 116.922 787.132 117.117C788.688 117.214 790.049 117.506 790.827 119.452C794.132 127.721 797.632 135.795 801.035 143.967C801.424 144.939 801.91 145.815 802.688 147.372Z" fill="white"/>
<path d="M819.489 94.9343C816.669 95.1289 814.044 94.837 811.419 93.8642C805.586 91.6267 802.961 86.9572 802.28 81.2176C801.794 77.5208 801.891 73.6296 802.572 69.8356C803.836 63.415 808.6 58.94 815.016 57.8699C819.294 57.1889 823.475 57.8699 827.558 58.8427C829.211 59.2319 830.377 62.9286 829.308 64.0959C828.725 64.6796 828.141 64.1932 827.655 63.9987C824.252 62.8313 820.752 62.6367 817.252 62.734C812.003 62.9286 808.697 65.9443 807.53 71.7812C806.947 74.9915 807.044 78.2991 807.628 81.6067C808.794 87.8327 812.878 89.7784 818.225 90.0702C821.336 90.2648 824.35 89.7784 827.266 88.8055C828.822 88.3191 829.405 88.4164 829.405 90.1675C829.405 93.3778 829.405 93.2805 826.391 94.156C824.252 94.7397 821.919 95.1289 819.489 94.9343Z" fill="white"/>
<path d="M882.121 75.7707C882.121 72.1713 882.024 68.5718 882.121 64.9724C882.121 63.5132 881.635 62.9295 880.274 63.1241C879.787 63.2213 879.204 63.0268 878.718 63.1241C876.579 63.5132 875.801 62.7349 875.899 60.4002C875.996 58.5518 876.579 58.1627 878.232 58.26C882.121 58.3572 882.121 58.26 882.121 54.2714C882.121 52.7149 882.121 51.1584 882.121 49.6019C882.121 48.4345 882.51 47.9481 883.676 48.0454C884.065 48.0454 884.551 48.1426 885.037 48.0454C886.982 47.7535 887.76 48.4345 887.468 50.4774C887.274 51.9366 887.468 53.3959 887.468 54.8551C887.468 58.5518 887.079 58.1627 890.676 58.1627C892.135 58.1627 893.593 58.26 895.051 58.1627C897.19 58.0654 896.607 59.6219 896.607 60.692C896.704 61.8594 896.898 63.1241 894.954 63.0268C893.01 62.9295 890.968 63.0268 889.024 63.0268C887.76 63.0268 887.371 63.4159 887.371 64.6806C887.371 71.4903 887.274 78.3973 887.468 85.207C887.565 89.1956 890.093 90.7521 894.371 89.8766C895.148 89.682 896.51 88.8065 896.607 90.1684C896.607 91.6276 898.162 93.9624 895.343 94.5461C890.093 95.6162 885.815 95.0325 883.385 91.0439C882.51 89.5847 882.218 88.0282 882.218 86.4717C882.121 82.8723 882.121 79.3701 882.121 75.7707Z" fill="white"/>
<path d="M945.703 134.234C945.703 130.732 945.703 127.132 945.703 123.63C945.703 122.268 945.217 121.782 943.953 121.879C943.369 121.976 942.786 121.879 942.203 121.879C939.578 121.879 938.994 121.003 939.578 118.377C939.772 117.307 940.55 117.501 941.231 117.404C945.703 117.209 945.703 117.209 945.703 112.637C945.703 111.859 945.703 110.983 945.703 110.205C945.703 106.8 946.675 106.119 950.078 106.8C951.147 106.995 951.05 107.773 951.05 108.454C951.05 110.594 951.147 112.734 951.05 114.875C950.953 116.918 951.828 117.501 953.675 117.404C955.328 117.307 957.078 117.501 958.73 117.404C960.48 117.307 960.383 118.377 960.383 119.544C960.383 120.712 960.675 121.976 958.73 121.879C956.786 121.782 954.939 121.879 952.994 121.879C951.536 121.879 951.05 122.463 951.05 123.825C951.05 130.245 950.953 136.569 951.147 142.989C951.244 147.172 952.411 150.383 958.633 148.729C960.383 148.242 960.383 149.021 960.383 150.285C960.48 152.231 960.286 153.398 957.855 153.885C950.855 155.149 945.897 151.453 945.8 144.351C945.605 140.946 945.703 137.541 945.703 134.234Z" fill="white"/>
<path d="M865.78 136.865C865.78 131.903 865.78 126.845 865.78 121.883C865.78 120.619 866.071 119.743 867.335 119.354C872.099 117.797 876.863 116.533 881.918 116.533C884.349 116.533 885.807 119.257 884.641 121.3C884.349 121.883 883.96 121.591 883.474 121.591C879.78 121.105 876.182 121.98 872.585 122.37C871.127 122.564 871.03 123.537 871.03 124.802C871.03 133.654 870.932 142.507 871.127 151.262C871.127 153.5 870.252 153.694 868.405 153.694C866.557 153.694 865.585 153.5 865.682 151.262C865.974 146.398 865.78 141.631 865.78 136.865Z" fill="white"/>
<path d="M843.316 32.1849C841.08 32.1849 838.941 32.1849 836.705 32.1849C835.247 32.1849 834.761 32.4767 835.15 34.1305C836.414 40.5511 840.4 41.0375 845.164 40.5511C846.233 40.4538 847.302 39.9674 848.372 39.6756C849.052 39.5783 849.83 38.3136 850.316 39.6756C850.608 40.5511 850.9 41.8158 849.636 42.594C842.247 47.1663 833.011 42.594 831.844 34.1305C831.455 31.5039 831.747 29.0718 832.233 26.5425C833.205 21.7757 838.066 19.0518 842.539 19.5382C849.344 20.2192 851.677 24.6942 851.775 30.7256C851.775 31.893 851.386 32.2821 850.219 32.2821C847.886 32.1849 845.65 32.1849 843.316 32.1849ZM841.566 29.1691C843.219 29.1691 844.969 29.0718 846.622 29.1691C848.177 29.2664 848.372 28.4881 848.08 27.2235C847.497 24.4996 844.775 22.4567 841.761 22.554C838.261 22.6512 836.219 24.2077 835.539 27.2235C835.247 28.4881 835.539 29.1691 836.997 29.1691C838.455 29.0718 840.011 29.1691 841.566 29.1691Z" fill="white"/>
<path d="M806.28 26.3553C806.28 21.5885 806.28 16.8217 806.28 12.0549C806.28 10.8875 805.891 9.62284 807.932 9.72012C809.78 9.72012 809.391 10.9848 809.391 11.9576C809.391 14.4869 809.488 16.919 809.391 19.4483C809.391 21.0048 809.78 21.3939 811.335 20.713C814.641 19.2537 818.141 18.9619 821.446 20.713C823.974 22.0749 825.141 24.3124 825.238 27.0363C825.432 31.9004 825.238 36.7645 825.335 41.6286C825.335 42.796 825.043 43.3796 823.779 43.3796C822.418 43.3796 822.224 42.6987 822.224 41.6286C822.224 37.64 822.224 33.6515 822.224 29.7602C822.224 25.5771 820.474 23.3396 816.682 22.8532C814.446 22.5613 812.21 23.3396 810.168 24.507C809.293 24.9934 809.391 25.8689 809.391 26.6472C809.391 31.414 809.391 36.1808 809.391 40.9476C809.391 42.0177 809.877 43.3796 807.932 43.3796C805.988 43.3796 806.377 42.115 806.377 41.0449C806.28 36.0835 806.28 31.2194 806.28 26.3553Z" fill="white"/>
<path d="M770.116 135.409C770.116 130.059 770.213 124.708 770.116 119.358C770.018 117.218 771.185 117.023 772.838 117.023C774.393 117.12 775.852 116.731 775.852 119.26C775.754 129.961 775.754 140.76 775.852 151.461C775.852 154.185 774.102 153.601 772.643 153.698C771.088 153.795 770.018 153.698 770.116 151.558C770.213 146.11 770.116 140.76 770.116 135.409Z" fill="white"/>
<path d="M931.507 135.6C931.507 140.853 931.41 146.204 931.605 151.457C931.702 153.5 930.73 153.694 929.077 153.597C927.716 153.5 926.16 154.084 926.16 151.554C926.257 140.853 926.257 130.152 926.16 119.354C926.16 116.922 927.618 117.408 928.98 117.311C930.535 117.214 931.605 117.311 931.507 119.451C931.41 124.899 931.507 130.25 931.507 135.6Z" fill="white"/>
<path d="M906.423 76.2529C906.423 70.9024 906.52 65.5519 906.423 60.2014C906.326 58.0612 907.687 58.2558 908.951 58.3531C910.215 58.4503 911.77 57.6721 911.77 60.2014C911.673 71.097 911.673 81.8953 911.77 92.7908C911.77 94.3474 911.09 94.6392 909.826 94.6392C906.52 94.6392 906.52 94.7365 906.52 91.3316C906.423 86.273 906.423 81.2143 906.423 76.2529Z" fill="white"/>
<path d="M787.314 29.1742C787.314 25.283 787.217 21.3917 787.314 17.5004C787.314 16.0412 786.925 15.3602 785.37 15.4575C782.842 15.5548 780.411 15.4575 777.884 15.4575C776.814 15.4575 776.328 15.0684 776.328 13.901C776.328 12.8309 776.62 12.2472 777.786 12.3445C785.175 12.3445 792.661 12.3445 800.05 12.3445C801.12 12.3445 801.411 12.8309 801.508 13.8037C801.508 14.8738 801.314 15.4575 800.05 15.4575C797.814 15.3602 795.675 15.5548 793.439 15.4575C791.495 15.3602 790.814 15.8466 790.814 17.9868C790.911 25.6721 790.814 33.4546 790.911 41.1399C790.911 42.4046 790.911 43.3774 789.064 43.3774C787.217 43.3774 787.314 42.4046 787.314 41.1399C787.314 37.0541 787.314 33.1628 787.314 29.1742Z" fill="white"/>
<path d="M909.041 51.6473C906.027 51.6473 906.027 51.6473 906.027 48.8262C906.027 45.9077 906.027 45.9077 909.236 45.9077C912.152 45.9077 912.152 45.9077 912.152 48.8262C912.152 51.6473 912.152 51.6473 909.041 51.6473Z" fill="white"/>
<path d="M775.842 107.974C775.842 110.795 775.842 110.795 772.925 110.795C770.009 110.795 770.009 110.795 770.106 107.779C770.106 105.055 770.106 105.055 773.12 105.055C775.842 105.055 775.842 105.055 775.842 107.974Z" fill="white"/>
<path d="M926.254 107.779C926.254 105.055 926.254 105.055 929.268 105.055C931.99 105.055 931.796 105.055 932.087 108.168C932.379 110.989 930.823 110.795 928.879 110.795C926.254 110.795 926.254 110.795 926.254 107.779Z" fill="white"/>
<path d="M90.0543 109.535C71.2906 81.0313 44.9437 66.1472 10.5273 65.2716C11.5968 61.6722 13.1523 58.2673 14.9023 54.9598C25.0133 35.8925 40.1798 22.3703 60.4019 14.5878C60.9852 14.3932 61.763 13.7122 62.3463 14.1987C63.0268 14.6851 62.5407 15.6579 62.4435 16.3389C61.8602 21.0084 61.3741 25.6779 60.6935 30.4447C60.5963 31.3203 60.5963 31.904 61.4713 32.2931C70.4156 37.0599 75.2767 44.9397 78.3878 54.1815C81.0128 61.8668 81.8878 69.8439 82.0822 77.9183C82.0822 80.3503 83.0544 80.3503 84.9016 80.4476C86.846 80.5449 87.3321 79.8639 87.3321 78.0156C87.2349 65.8553 87.4294 53.6951 87.2349 41.5349C87.2349 38.7137 88.6932 39.2974 90.2488 39.2001C91.9015 39.1028 93.0682 39.1028 92.971 41.5349C92.7765 53.7924 92.971 65.9526 92.8738 78.2101C92.8738 79.9612 93.3599 80.5449 95.1098 80.3503C96.5682 80.1558 98.1237 80.7395 98.1237 78.1128C98.0265 67.3146 99.6792 56.8081 104.638 47.0799C107.749 40.8539 112.026 35.6007 118.346 32.2931C119.512 31.7094 119.707 30.9311 119.512 29.861C118.929 25.6779 118.346 21.3975 117.86 17.2144C117.762 16.6307 117.762 15.9497 117.665 15.366C117.471 13.9068 117.957 13.9068 119.221 14.2959C125.929 16.728 132.248 20.0356 138.179 24.1214C152.373 33.9469 162.484 46.9826 168.998 62.9369C169.776 64.9798 169.387 65.3689 167.345 65.3689C145.957 65.758 126.998 72.7623 110.471 86.2845C102.79 92.5106 96.3737 99.904 91.1238 108.173C90.8321 108.854 90.6377 109.34 90.0543 109.535Z" fill="#EC1B24"/>
<path d="M174.737 91.8294C174.64 110.702 170.071 126.073 161.029 140.179C160.154 141.638 159.473 141.735 157.918 140.957C145.474 134.244 132.252 129.964 118.446 127.143C111.349 125.684 104.155 124.516 96.863 124.322C94.5297 124.224 95.5991 123.154 96.0852 122.181C103.182 108.367 113.974 98.1528 127.488 90.6621C137.21 85.2143 147.71 82.004 158.793 80.4475C163.265 79.8638 167.737 79.8638 172.307 79.8638C173.376 79.8638 173.668 80.1556 173.862 81.323C174.348 85.5061 174.932 89.6892 174.737 91.8294Z" fill="#010101"/>
<path d="M5.56641 94.0694C5.56641 89.9836 5.66363 86.1896 6.14973 82.3956C6.34418 80.8391 6.73306 79.9636 8.77471 79.9636C29.4828 79.6717 48.0521 85.8005 64.288 98.5444C72.5519 104.965 79.1629 112.845 83.9267 122.184C84.8017 123.838 84.6073 124.324 82.6629 124.519C61.2742 125.978 40.9549 131.037 21.9968 141.154C20.7329 141.835 20.0524 141.932 19.2746 140.667C12.3719 129.772 7.99694 118.001 6.14973 105.354C5.56641 101.56 5.56641 97.6689 5.56641 94.0694Z" fill="#010101"/>
<path d="M82.0794 129.481C82.2738 129.481 82.5655 129.481 82.7599 129.481C86.8432 129.481 86.9404 129.481 87.3293 133.567C87.5238 135.805 87.621 138.042 87.8154 140.28C88.0099 142.128 87.4265 142.517 85.5793 142.614C69.7323 143.198 54.7602 146.7 40.8575 154.58C39.3992 155.456 37.8437 156.234 36.5798 157.304C35.4132 158.277 34.7326 157.985 33.8576 157.109C30.3576 154.094 27.2466 150.592 24.2327 146.992C23.2605 145.825 23.6494 145.436 24.7188 144.852C36.8715 138.723 49.7047 134.248 63.1212 131.719C69.3434 130.649 75.6628 129.773 82.0794 129.481Z" fill="#010101"/>
<path d="M98.0304 129.484C115.044 130.456 131.377 134.25 147.03 141.06C150.044 142.325 152.863 143.784 155.78 145.146C156.655 145.535 156.946 145.924 156.169 146.8C152.96 150.594 149.558 154.29 145.863 157.598C145.085 158.279 144.697 158.084 143.919 157.598C132.544 149.718 119.711 145.827 106.294 143.687C102.211 143.006 98.1276 142.519 94.0443 142.617C93.1693 142.617 92.4888 142.714 92.3916 141.352C92.2943 137.947 92.7804 134.737 93.0721 131.332C93.1693 129.775 93.9471 129.094 95.5998 129.386C96.4748 129.581 97.2526 129.484 98.0304 129.484Z" fill="#010101"/>
<path d="M87.8163 153.51C87.8163 155.358 88.3996 157.498 87.6218 159.055C86.7469 160.903 84.3163 159.639 82.5663 159.93C74.0109 161.292 65.7471 163.53 58.8444 168.978C56.1222 171.118 54.1777 170.923 51.5528 169.367C47.8584 167.227 44.2612 165.086 40.664 162.752C38.914 161.584 39.2057 161.001 40.7612 159.93C49.4139 154.483 58.8444 151.078 68.8581 149.132C74.5942 147.965 80.3303 147.478 86.1635 147.187C87.4274 147.187 88.0107 147.381 87.9135 148.84C87.7191 150.397 87.8163 151.953 87.8163 153.51Z" fill="#010101"/>
<path d="M92.486 153.415C92.486 152.247 92.5832 151.08 92.486 149.913C92.1943 147.87 92.7776 147.091 95.0137 147.189C110.666 148.162 125.541 151.177 138.958 159.835C141.291 161.392 141.291 161.392 138.958 163.046C134.874 165.964 130.499 168.493 125.93 170.634C124.861 171.12 124.18 171.217 123.111 170.342C116.305 164.699 108.236 161.781 99.5831 160.322C98.8054 160.224 98.0276 160.03 97.347 159.933C95.7915 159.641 93.4582 160.614 92.7776 159.349C91.9999 157.987 92.486 155.847 92.486 154.096C92.486 153.901 92.486 153.609 92.486 153.415Z" fill="#010101"/>
<path d="M80.4313 19.2586C80.3341 13.6162 84.5146 9.43311 90.1535 9.43311C95.5006 9.43311 99.9728 13.8108 99.9728 19.064C99.9728 24.6091 95.5006 29.084 89.959 28.9868C84.5146 29.084 80.4313 24.8036 80.4313 19.2586Z" fill="#FEC40F"/>
<path d="M60.5938 173.352C63.5104 170.531 66.8159 168.78 70.4131 167.32C75.5658 165.277 80.8158 164.207 86.3574 164.013C87.4268 164.013 87.8157 164.207 87.8157 165.375C87.7185 169.169 87.7185 172.963 87.8157 176.757C87.8157 178.216 87.4268 178.605 85.9685 178.605C78.5797 178.119 71.2881 176.951 64.1909 174.616C63.1215 174.325 62.0521 173.838 60.5938 173.352Z" fill="#010101"/>
<path d="M119.611 173.254C114.07 175.395 108.722 176.757 103.181 177.632C100.167 178.119 97.0559 178.313 93.9448 178.605C92.8754 178.702 92.4865 178.313 92.4865 177.146C92.5837 173.157 92.4865 169.266 92.4865 165.277C92.4865 164.694 92.292 164.013 93.3615 164.013C102.986 164.402 111.834 166.834 119.611 173.254Z" fill="#010101"/>
</svg>
